<svg width="494" height="541" viewBox="0 0 494 541" fill="none" xmlns="http://www.w3.org/2000/svg">
<path d="M21.5312 9.87256L7.92716 36.6997L6.17116 318.228H5.04162L3.49919 507.933L38.8109 515.167H3.38529L2.99138 540.185H304.687L342.155 515.167L354.118 440.185H366.751L378.266 423.908L382.679 440.185H486.484L488.634 253.638L471.461 245.5L489.184 218.673L491.42 56.6997L452.585 46.4511H491.581L491.842 9.87256L286.978 9.87256L271.887 46.4511L261.164 9.87256H21.5312Z" fill="#370078"/>
<path d="M21.5312 9.87256L7.92716 36.6997L6.17116 318.228H5.04162L3.49919 507.933L38.8109 515.167H3.38529L2.99138 540.185H304.687L342.155 515.167L354.118 440.185H366.751L378.266 423.908L382.679 440.185H486.484L488.634 253.638L471.461 245.5L489.184 218.673L491.42 56.6997L452.585 46.4511H491.581L491.842 9.87256L286.978 9.87256L271.887 46.4511L261.164 9.87256H21.5312Z" fill="#077AD6"/>
<path d="M287.554 2.08038L490.247 2.08038L490.033 15.6593H452.538L452.11 18.6097L489.83 28.5643L487.62 168.939L470.142 195.395L469.19 196.835L470.73 197.565L487.032 205.291L484.961 269.394H383.761L379.644 254.203L378.818 251.158L376.975 253.763L365.917 269.394H354.071H352.727L352.559 270.729L340.682 365.02L304.181 389.394H4.4437L4.79039 367.375H38.716L39.0629 364.405L4.95569 357.418L6.46898 290.738L16.5695 179.44L16.5906 179.207L16.5402 178.981L7.60264 138.76L9.35038 27.7562L22.3706 2.08038L260.263 2.08038L270.553 17.9875L271.6 19.6071L272.918 18.159L287.554 2.08038Z" fill="#5F0BA0"/>
<path d="M287.554 2.08038L490.247 2.08038L490.033 15.6593H452.538L452.11 18.6097L489.83 28.5643L487.62 168.939L470.142 195.395L469.19 196.835L470.73 197.565L487.032 205.291L484.961 269.394H383.761L379.644 254.203L378.818 251.158L376.975 253.763L365.917 269.394H354.071H352.727L352.559 270.729L340.682 365.02L304.181 389.394H4.4437L4.79039 367.375H38.716L39.0629 364.405L4.95569 357.418L6.46898 290.738L16.5695 179.44L16.5906 179.207L16.5402 178.981L7.60264 138.76L9.35038 27.7562L22.3706 2.08038L260.263 2.08038L270.553 17.9875L271.6 19.6071L272.918 18.159L287.554 2.08038Z" fill="#1E9EFF"/>
<path d="M287.554 2.08038L490.247 2.08038L490.033 15.6593H452.538L452.11 18.6097L489.83 28.5643L487.62 168.939L470.142 195.395L469.19 196.835L470.73 197.565L487.032 205.291L484.961 269.394H383.761L379.644 254.203L378.818 251.158L376.975 253.763L365.917 269.394H354.071H352.727L352.559 270.729L340.682 365.02L304.181 389.394H4.4437L4.79039 367.375H38.716L39.0629 364.405L4.95569 357.418L6.46898 290.738L16.5695 179.44L16.5906 179.207L16.5402 178.981L7.60264 138.76L9.35038 27.7562L22.3706 2.08038L260.263 2.08038L270.553 17.9875L271.6 19.6071L272.918 18.159L287.554 2.08038Z" stroke="url(#paint0_linear_2004_1799)" stroke-width="3"/>
<path d="M287.554 2.08038L490.247 2.08038L490.033 15.6593H452.538L452.11 18.6097L489.83 28.5643L487.62 168.939L470.142 195.395L469.19 196.835L470.73 197.565L487.032 205.291L484.961 269.394H383.761L379.644 254.203L378.818 251.158L376.975 253.763L365.917 269.394H354.071H352.727L352.559 270.729L340.682 365.02L304.181 389.394H4.4437L4.79039 367.375H38.716L39.0629 364.405L4.95569 357.418L6.46898 290.738L16.5695 179.44L16.5906 179.207L16.5402 178.981L7.60264 138.76L9.35038 27.7562L22.3706 2.08038L260.263 2.08038L270.553 17.9875L271.6 19.6071L272.918 18.159L287.554 2.08038Z" stroke="#077AD6" stroke-width="3"/>
<defs>
<linearGradient id="paint0_linear_2004_1799" x1="222.205" y1="0.580566" x2="222.205" y2="340.893" gradientUnits="userSpaceOnUse">
<stop stop-color="#B85CFF"/>
<stop offset="1" stop-color="#5800C1"/>
</linearGradient>
</defs>
</svg>
