<svg width="495" height="751" viewBox="0 0 495 751" fill="none" xmlns="http://www.w3.org/2000/svg">
<path d="M471.256 750.439L484.86 723.612L486.616 442.084H487.745L489.288 252.379L453.976 245.145H489.402L489.796 220.127H188.1L150.633 245.145L138.669 350.127H126.036L114.521 366.404L110.109 350.127H6.30323L4.15327 506.674L21.326 514.812L3.60274 541.639L1.36738 703.612L40.2017 713.861H1.20602L0.944946 750.439H205.809L220.9 713.861L231.623 750.439H471.256Z" fill="#370078"/>
<path d="M471.256 750.439L484.86 723.612L486.616 442.084H487.745L489.288 252.379L453.976 245.145H489.402L489.796 220.127H188.1L150.633 245.145L138.669 350.127H126.036L114.521 366.404L110.109 350.127H6.30323L4.15327 506.674L21.326 514.812L3.60274 541.639L1.36738 703.612L40.2017 713.861H1.20602L0.944946 750.439H205.809L220.9 713.861L231.623 750.439H471.256Z" fill="#C6A11D"/>
<path d="M471.256 750.439L484.86 723.612L486.616 442.084H487.745L489.288 252.379L453.976 245.145H489.402L489.796 220.127H188.1L150.633 245.145L138.669 350.127H126.036L114.521 366.404L110.109 350.127H6.30323L4.15327 506.674L21.326 514.812L3.60274 541.639L1.36738 703.612L40.2017 713.861H1.20602L0.944946 750.439H205.809L220.9 713.861L231.623 750.439H471.256Z" fill="#370078"/>
<path d="M205.233 608.813H2.53988L2.75368 595.234H40.2493L40.6771 592.283L2.95686 582.329L5.16704 441.954L22.6451 415.498L23.5967 414.058L22.0572 413.328L5.75523 405.602L7.8261 341.5H109.026L113.143 356.69L113.969 359.735L115.812 357.13L126.87 341.5H138.716H140.183L140.239 340.033L152.174 25.8272L188.606 1.4994H488.343L487.997 23.5183H454.071L453.724 26.4876L487.853 33.4794L486.317 320.168L476.218 431.453L476.196 431.686L476.247 431.913L485.184 472.133L483.437 583.137L470.416 608.813H232.524L222.234 592.906L221.187 591.286L219.869 592.734L205.233 608.813Z" fill="#5F0BA0"/>
<path d="M205.233 608.813H2.53988L2.75368 595.234H40.2493L40.6771 592.283L2.95686 582.329L5.16704 441.954L22.6451 415.498L23.5967 414.058L22.0572 413.328L5.75523 405.602L7.8261 341.5H109.026L113.143 356.69L113.969 359.735L115.812 357.13L126.87 341.5H138.716H140.183L140.239 340.033L152.174 25.8272L188.606 1.4994H488.343L487.997 23.5183H454.071L453.724 26.4876L487.853 33.4794L486.317 320.168L476.218 431.453L476.196 431.686L476.247 431.913L485.184 472.133L483.437 583.137L470.416 608.813H232.524L222.234 592.906L221.187 591.286L219.869 592.734L205.233 608.813Z" fill="#D9EB10"/>
<path d="M205.233 608.813H2.53988L2.75368 595.234H40.2493L40.6771 592.283L2.95686 582.329L5.16704 441.954L22.6451 415.498L23.5967 414.058L22.0572 413.328L5.75523 405.602L7.8261 341.5H109.026L113.143 356.69L113.969 359.735L115.812 357.13L126.87 341.5H138.716H140.183L140.239 340.033L152.174 25.8272L188.606 1.4994H488.343L487.997 23.5183H454.071L453.724 26.4876L487.853 33.4794L486.317 320.168L476.218 431.453L476.196 431.686L476.247 431.913L485.184 472.133L483.437 583.137L470.416 608.813H232.524L222.234 592.906L221.187 591.286L219.869 592.734L205.233 608.813Z" fill="#5F0BA0"/>
<path d="M205.233 608.813H2.53988L2.75368 595.234H40.2493L40.6771 592.283L2.95686 582.329L5.16704 441.954L22.6451 415.498L23.5967 414.058L22.0572 413.328L5.75523 405.602L7.8261 341.5H109.026L113.143 356.69L113.969 359.735L115.812 357.13L126.87 341.5H138.716H140.183L140.239 340.033L152.174 25.8272L188.606 1.4994H488.343L487.997 23.5183H454.071L453.724 26.4876L487.853 33.4794L486.317 320.168L476.218 431.453L476.196 431.686L476.247 431.913L485.184 472.133L483.437 583.137L470.416 608.813H232.524L222.234 592.906L221.187 591.286L219.869 592.734L205.233 608.813Z" stroke="url(#paint0_linear_2004_1800)" stroke-width="3"/>
<path d="M205.233 608.813H2.53988L2.75368 595.234H40.2493L40.6771 592.283L2.95686 582.329L5.16704 441.954L22.6451 415.498L23.5967 414.058L22.0572 413.328L5.75523 405.602L7.8261 341.5H109.026L113.143 356.69L113.969 359.735L115.812 357.13L126.87 341.5H138.716H140.183L140.239 340.033L152.174 25.8272L188.606 1.4994H488.343L487.997 23.5183H454.071L453.724 26.4876L487.853 33.4794L486.317 320.168L476.218 431.453L476.196 431.686L476.247 431.913L485.184 472.133L483.437 583.137L470.416 608.813H232.524L222.234 592.906L221.187 591.286L219.869 592.734L205.233 608.813Z" stroke="#C6A11D" stroke-width="3"/>
<path d="M205.233 608.813H2.53988L2.75368 595.234H40.2493L40.6771 592.283L2.95686 582.329L5.16704 441.954L22.6451 415.498L23.5967 414.058L22.0572 413.328L5.75523 405.602L7.8261 341.5H109.026L113.143 356.69L113.969 359.735L115.812 357.13L126.87 341.5H138.716H140.183L140.239 340.033L152.174 25.8272L188.606 1.4994H488.343L487.997 23.5183H454.071L453.724 26.4876L487.853 33.4794L486.317 320.168L476.218 431.453L476.196 431.686L476.247 431.913L485.184 472.133L483.437 583.137L470.416 608.813H232.524L222.234 592.906L221.187 591.286L219.869 592.734L205.233 608.813Z" stroke="url(#paint1_linear_2004_1800)" stroke-width="3"/>
<defs>
<linearGradient id="paint0_linear_2004_1800" x1="270.582" y1="610.312" x2="270.582" y2="269.999" gradientUnits="userSpaceOnUse">
<stop stop-color="#B85CFF"/>
<stop offset="1" stop-color="#5800C1"/>
</linearGradient>
<linearGradient id="paint1_linear_2004_1800" x1="270.582" y1="610.313" x2="270.582" y2="78.1822" gradientUnits="userSpaceOnUse">
<stop stop-color="#B85CFF"/>
<stop offset="1" stop-color="#5800C1"/>
</linearGradient>
</defs>
</svg>
