<svg width="503" height="610" viewBox="0 0 503 610" fill="none" xmlns="http://www.w3.org/2000/svg">
<path d="M25.5312 8.13477L11.9272 29.9449L10.1712 258.824H9.04166L7.49922 413.052L42.8109 418.933H7.38532L6.99141 439.273L308.687 610L346.154 589.66L358.118 528.701H370.751L382.266 515.468L386.678 528.701H490.484L493.184 482.729L493.184 476.113L493.184 348.614L495.42 46.2047L456.585 37.8727H495.581L495.842 8.13477L290.978 8.13477L275.887 37.8727L265.164 8.13477H25.5312Z" fill="#370078"/>
<path d="M25.5312 8.13477L11.9272 29.9449L10.1712 258.824H9.04166L7.49922 413.052L42.8109 418.933H7.38532L6.99141 439.273L308.687 610L346.154 589.66L358.118 528.701H370.751L382.266 515.468L386.678 528.701H490.484L493.184 482.729L493.184 476.113L493.184 348.614L495.42 46.2047L456.585 37.8727H495.581L495.842 8.13477L290.978 8.13477L275.887 37.8727L265.164 8.13477H25.5312Z" fill="#FF8805"/>
<path d="M291.457 2.08029L494.242 2.08029L494.039 12.559H456.543L456.172 15.5253L493.825 23.6038L491.615 137.724L473.904 265.133L473.742 266.295L474.827 266.712L491.062 272.968L491.062 324.53H387.698L383.619 312.298L382.8 309.839L381.071 311.825L370.015 324.53H358.076H356.766L356.565 325.829L344.717 402.298L308.511 421.953L8.44076 316.834L8.78499 299.06H42.7106L43.014 296.081L8.96343 290.41L10.4683 236.5L20.5665 146.038L20.5983 145.753L20.5233 145.479L11.6041 112.847L13.3478 22.8086L26.2771 2.08029L264.351 2.08029L274.635 15.0061L275.611 16.2333L276.804 15.1685L291.457 2.08029Z" fill="#5F0BA0"/>
<path d="M291.457 2.08029L494.242 2.08029L494.039 12.559H456.543L456.172 15.5253L493.825 23.6038L491.615 137.724L473.904 265.133L473.742 266.295L474.827 266.712L491.062 272.968L491.062 324.53H387.698L383.619 312.298L382.8 309.839L381.071 311.825L370.015 324.53H358.076H356.766L356.565 325.829L344.717 402.298L308.511 421.953L8.44076 316.834L8.78499 299.06H42.7106L43.014 296.081L8.96343 290.41L10.4683 236.5L20.5665 146.038L20.5983 145.753L20.5233 145.479L11.6041 112.847L13.3478 22.8086L26.2771 2.08029L264.351 2.08029L274.635 15.0061L275.611 16.2333L276.804 15.1685L291.457 2.08029Z" fill="#FFD850"/>
<path d="M291.457 2.08029L494.242 2.08029L494.039 12.559H456.543L456.172 15.5253L493.825 23.6038L491.615 137.724L473.904 265.133L473.742 266.295L474.827 266.712L491.062 272.968L491.062 324.53H387.698L383.619 312.298L382.8 309.839L381.071 311.825L370.015 324.53H358.076H356.766L356.565 325.829L344.717 402.298L308.511 421.953L8.44076 316.834L8.78499 299.06H42.7106L43.014 296.081L8.96343 290.41L10.4683 236.5L20.5665 146.038L20.5983 145.753L20.5233 145.479L11.6041 112.847L13.3478 22.8086L26.2771 2.08029L264.351 2.08029L274.635 15.0061L275.611 16.2333L276.804 15.1685L291.457 2.08029Z" stroke="url(#paint0_linear_2004_1801)" stroke-width="3"/>
<path d="M291.457 2.08029L494.242 2.08029L494.039 12.559H456.543L456.172 15.5253L493.825 23.6038L491.615 137.724L473.904 265.133L473.742 266.295L474.827 266.712L491.062 272.968L491.062 324.53H387.698L383.619 312.298L382.8 309.839L381.071 311.825L370.015 324.53H358.076H356.766L356.565 325.829L344.717 402.298L308.511 421.953L8.44076 316.834L8.78499 299.06H42.7106L43.014 296.081L8.96343 290.41L10.4683 236.5L20.5665 146.038L20.5983 145.753L20.5233 145.479L11.6041 112.847L13.3478 22.8086L26.2771 2.08029L264.351 2.08029L274.635 15.0061L275.611 16.2333L276.804 15.1685L291.457 2.08029Z" stroke="#FFF85C" stroke-width="3"/>
<defs>
<linearGradient id="paint0_linear_2004_1801" x1="226.205" y1="0.580566" x2="226.205" y2="277.251" gradientUnits="userSpaceOnUse">
<stop stop-color="#B85CFF"/>
<stop offset="1" stop-color="#5800C1"/>
</linearGradient>
</defs>
</svg>
