<svg width="376" height="659" viewBox="0 0 376 659" fill="none" xmlns="http://www.w3.org/2000/svg">
<path d="M357.385 659L367.581 635.808L368.897 392.434H369.744L370.9 228.439L344.434 222.185H370.985L371.28 200.558L145.166 19.0182L117.085 40.6461L108.118 105.466H98.6503L90.0197 119.537L86.7128 105.466H8.91281L6.88884 154.349L6.88884 161.384L6.88883 296.958L5.21335 618.519L34.3189 627.379H5.09241L4.89673 659H158.438L169.748 627.379L177.786 659H357.385Z" fill="#370078"/>
<path d="M357.385 659L367.581 635.808L368.897 392.434H369.744L370.9 228.439L344.434 222.185H370.985L371.28 200.558L145.166 19.0182L117.085 40.6461L108.118 105.466H98.6503L90.0197 119.537L86.7128 105.466H8.91281L6.88884 154.349L6.88884 161.384L6.88883 296.958L5.21335 618.519L34.3189 627.379H5.09241L4.89673 659H158.438L169.748 627.379L177.786 659H357.385Z" fill="#8338D4"/>
<path d="M157.779 448.298H6.47192L6.62661 436.966H34.353L34.8283 434.031L6.78321 425.494L8.4425 303.937L21.7196 168.427L21.8153 167.45L20.9601 166.983L8.85619 160.366L8.85619 105.237H85.5741L88.6135 118.17L89.4411 121.692L91.3501 118.58L99.5339 105.237H108.152H109.516L109.664 103.88L118.56 22.4143L145.375 1.76126L369.822 113.314L369.56 132.51H344.51L344.125 135.47L369.431 141.45L368.3 198.964L360.729 295.178L360.714 295.38L360.752 295.578L367.45 330.346L366.14 426.3L356.469 448.298H178.729L171.114 434.719L170.026 432.778L168.63 434.547L157.779 448.298Z" fill="#5F0BA0"/>
<path d="M157.779 448.298H6.47192L6.62661 436.966H34.353L34.8283 434.031L6.78321 425.494L8.4425 303.937L21.7196 168.427L21.8153 167.45L20.9601 166.983L8.85619 160.366L8.85619 105.237H85.5741L88.6135 118.17L89.4411 121.692L91.3501 118.58L99.5339 105.237H108.152H109.516L109.664 103.88L118.56 22.4143L145.375 1.76126L369.822 113.314L369.56 132.51H344.51L344.125 135.47L369.431 141.45L368.3 198.964L360.729 295.178L360.714 295.38L360.752 295.578L367.45 330.346L366.14 426.3L356.469 448.298H178.729L171.114 434.719L170.026 432.778L168.63 434.547L157.779 448.298Z" fill="#9D43FF"/>
<path d="M157.779 448.298H6.47192L6.62661 436.966H34.353L34.8283 434.031L6.78321 425.494L8.4425 303.937L21.7196 168.427L21.8153 167.45L20.9601 166.983L8.85619 160.366L8.85619 105.237H85.5741L88.6135 118.17L89.4411 121.692L91.3501 118.58L99.5339 105.237H108.152H109.516L109.664 103.88L118.56 22.4143L145.375 1.76126L369.822 113.314L369.56 132.51H344.51L344.125 135.47L369.431 141.45L368.3 198.964L360.729 295.178L360.714 295.38L360.752 295.578L367.45 330.346L366.14 426.3L356.469 448.298H178.729L171.114 434.719L170.026 432.778L168.63 434.547L157.779 448.298Z" stroke="url(#paint0_linear_2004_1803)" stroke-width="3"/>
<path d="M157.779 448.298H6.47192L6.62661 436.966H34.353L34.8283 434.031L6.78321 425.494L8.4425 303.937L21.7196 168.427L21.8153 167.45L20.9601 166.983L8.85619 160.366L8.85619 105.237H85.5741L88.6135 118.17L89.4411 121.692L91.3501 118.58L99.5339 105.237H108.152H109.516L109.664 103.88L118.56 22.4143L145.375 1.76126L369.822 113.314L369.56 132.51H344.51L344.125 135.47L369.431 141.45L368.3 198.964L360.729 295.178L360.714 295.38L360.752 295.578L367.45 330.346L366.14 426.3L356.469 448.298H178.729L171.114 434.719L170.026 432.778L168.63 434.547L157.779 448.298Z" stroke="#CB6BFF" stroke-width="3"/>
<defs>
<linearGradient id="paint0_linear_2004_1803" x1="206.986" y1="449.798" x2="206.986" y2="155.606" gradientUnits="userSpaceOnUse">
<stop stop-color="#B85CFF"/>
<stop offset="1" stop-color="#5800C1"/>
</linearGradient>
</defs>
</svg>
