<svg width="1920" height="1690" viewBox="0 0 1920 1690" fill="none" xmlns="http://www.w3.org/2000/svg">
<path d="M1480.6 2533.32C987.228 2619.84 535.618 1697.34 147.417 1912.9C-240.785 2128.45 -532.199 3008.97 -1061.2 2923.12C-1527.17 2847.23 -1721.77 1969.41 -1998.87 1648.23C-2276.06 1327.05 -2449 2056.06 -2449 2056.06V464.831H-1557.59L-937.915 1200.43L194.447 572.339L1272.96 1405.36L1747.64 464.831H2908.96V1959.59C2908.96 1959.59 2406.21 1476 2234.93 1691.82C2063.6 1907.38 1735.27 2488.92 1480.6 2533.32Z" fill="#3B0BA0"/>
<path d="M1480.6 2533.32C987.228 2619.84 535.618 1697.34 147.417 1912.9C-240.785 2128.45 -532.199 3008.97 -1061.2 2923.13C-1527.17 2847.24 -1721.77 1969.41 -1998.87 1648.23C-2276.06 1327.05 -2449 2056.06 -2449 2056.06V1912.63C-2449 1912.63 -2259.68 1165.19 -1909.48 1657.25C-1569.69 2134.78 -1515.31 2893.39 -896.173 2820.6C-554.898 2780.64 18.2436 1822.21 189.283 1789.38C470.908 1735.56 756.353 2149.17 1036.37 2297.86C1336.27 2457.17 1690.37 2525.66 1978.44 1967.8C2352.2 1243.77 2751.72 1733.94 2797.28 1787.5C2842.83 1841.32 2884.7 1881.01 2908.96 1914.11V1959.59C2908.96 1959.59 2406.21 1476 2234.93 1691.83C2063.6 1907.38 1735.27 2488.92 1480.6 2533.32Z" fill="#9F60DE"/>
<path d="M147.415 1405.37C-248.16 1546.51 -793.459 2927.03 -1305.55 2029.02C-1967.94 867.422 -2449 1380.47 -2449 1380.47V368.497C-2449 368.497 -2010.57 -257.177 -1327.85 368.497C-645.118 994.171 -326.585 400.521 120.544 368.497C146.61 366.614 172.098 367.689 197.275 371.322C603.756 430.93 910.144 1149.45 1709.37 368.497C2558.02 -460.622 2908.98 368.497 2908.98 368.497V1380.47C2908.98 1380.47 2278.3 743.766 1902.96 1571.54C1369.69 2748.08 542.99 1264.08 147.415 1405.37Z" fill="#CBB3FF"/>
<path d="M1544.3 633.574C1517.68 612.315 1490.76 592.804 1463.85 572.621C1490.08 554.725 1516.71 535.619 1544.18 514.091C1682.66 497.271 1821.48 451.791 1960.14 511.937C2134.05 587.69 2366.82 491.485 2521.07 1159.27C2358.93 1122.95 2171.16 1155.91 2009.96 1382.1C1860.31 1008.04 1703.36 759.516 1544.3 633.574Z" fill="#9991F9"/>
<path d="M856.975 701.932C906.36 844.694 956.819 971.309 1007.53 1085.14C1108.63 1312.27 1215.47 1460.95 1311.17 1778.09C1335.54 1858.82 1359.58 1943.19 1383.58 2027.69C1266.8 2026.61 1147.31 1978.84 1029.4 1909.95C905.182 1539.39 784.808 1117.84 672.695 618.51C731.044 652.283 791.913 681.884 856.975 701.932Z" fill="#9991F9"/>
<path d="M550.008 542.631C644.482 1017.74 746.019 1427.72 851.667 1792.23C785.139 1743.92 719.912 1693.2 656.73 1644.22C564.425 1198.98 467.886 774.331 366.555 431.085C427.361 462.84 487.797 502.265 550.008 542.631Z" fill="#9991F9"/>
<path d="M120.549 368.354C144.674 366.47 168.199 368.085 191.497 371.046C310.343 647.284 422.848 1071.67 529.426 1548.39C465.851 1502.37 405.581 1463.75 349.029 1436.44C258.5 1028.88 161.693 659.125 60.7958 376.293C80.5621 372.929 100.411 369.699 120.549 368.354Z" fill="#9991F9"/>
<path d="M2.18656 1501.03C-128.515 1282.11 -256.883 974.93 -375.481 557.545C-283.754 514.488 -195.002 464.838 -104.226 427.163C10.4275 631.146 121.735 980.043 225.895 1397.16C198.26 1394.33 171.967 1396.35 147.429 1405.37C100.977 1421.92 52.3976 1456.09 2.18656 1501.03Z" fill="#9991F9"/>
<path d="M1320.2 1352.61C1238.51 1111.63 1152.55 971.558 1067.78 786.278C1059.11 767.306 1050.47 747.931 1041.84 728.69C1094.65 727.613 1150.28 719.002 1209.37 700.837C1281.45 828.797 1356.9 901.86 1433.1 959.179C1593.38 1079.34 1750.87 1256.41 1903.07 1571.26C1903.03 1571.53 1902.99 1571.53 1902.95 1571.53C1784.18 1833.51 1650.9 1963.08 1511.07 2008.56C1447.47 1789.91 1385.84 1546.5 1320.2 1352.61Z" fill="#9991F9"/>
</svg>
