<svg width="232" height="262" viewBox="0 0 232 262" fill="none" xmlns="http://www.w3.org/2000/svg">
<path d="M224.7 27.5866L229.371 46.6449L222.089 122.945L214.768 150.065L217.404 172.025L211.007 239.046L193.273 242.101L210.535 243.995L208.901 261.111L89.0035 247.953L72.5722 228.855L64.9169 245.31L58.7614 244.634L54.3378 232.896L51.0001 243.783L0.418191 238.231L9.3344 144.815L18.2962 140.172L11.6176 120.894L20.8881 23.7653L40.559 18.8392L21.5573 16.7539L22.6398 5.41193L122.466 16.3671L128.609 28.5021L135.044 17.7475L224.7 27.5866Z" fill="#0961CF"/>
<path d="M122.112 12.7389L24.4923 2.0258L23.918 8.04276L41.4286 9.96443L41.5679 12.9368L23.1374 16.2207L15.9235 91.802L22.7955 106.927L23.4471 108.361L21.9992 108.933L13.9865 112.096L7.1375 183.854L55.0729 189.115L57.7961 181.614L58.9888 178.329L60.546 181.496L64.8185 190.184L69.1756 190.663L76.0161 178.581L76.9398 176.949L78.3304 178.24L94.7293 193.467L212.639 206.407L213.65 195.806L197.879 194.075L197.83 191.09L214.282 189.192L219.227 137.384L216.203 120.046L216.14 119.684L216.25 119.335L222.979 98.0644L228.715 37.969L224.09 23.9302L136.253 14.2908L130.544 22.025L129.27 23.7519L128.085 21.9284L122.112 12.7389Z" fill="#1B7AF2" stroke="#4696F9" stroke-width="3"/>
<path d="M169 54.9995L67.0003 83.9429L109.774 102.867V173L169 54.9995Z" fill="white"/>
</svg>
