<svg width="232" height="260" viewBox="0 0 232 260" fill="none" xmlns="http://www.w3.org/2000/svg">
<path d="M6.92701 27.5866L2.2404 46.4851L9.45955 122.121L16.7576 149L14.1032 170.774L20.4444 237.211L38.1747 240.223L20.9126 242.117L22.5321 259.084L142.43 245.926L158.876 226.977L166.517 243.283L172.672 242.607L177.105 230.966L180.433 241.755L231.015 236.204L222.177 143.601L213.22 139.007L219.913 119.888L210.724 23.6055L191.059 18.7404L210.06 16.6551L208.987 5.41193L109.161 16.3671L103.009 28.4033L96.5828 17.7475L6.92701 27.5866Z" fill="#0961CF"/>
<path d="M109.515 12.7389L207.135 2.0258L207.709 8.04276L190.198 9.96443L190.059 12.9368L208.49 16.2207L215.704 91.802L208.832 106.927L208.18 108.361L209.628 108.933L217.64 112.096L224.489 183.854L176.554 189.115L173.831 181.614L172.638 178.329L171.081 181.496L166.809 190.184L162.451 190.663L155.611 178.581L154.687 176.949L153.297 178.24L136.898 193.467L18.9884 206.407L17.9766 195.806L33.7476 194.075L33.7966 191.09L17.3453 189.192L12.4005 137.384L15.4241 120.046L15.4873 119.684L15.377 119.335L8.64758 98.0644L2.91173 37.969L7.53728 23.9302L95.3739 14.2908L101.083 22.025L102.357 23.7519L103.542 21.9284L109.515 12.7389Z" fill="#1B7AF2" stroke="#4696F9" stroke-width="3"/>
<path d="M111.733 91.5301L136.892 55.4558L156.519 52.8428L128.423 101.485L166.972 131.361L148.241 140.704L114.122 109.477L92.3804 148.141L69.7341 151.156L97.5147 111.688L58.3848 65.9077L81.0311 62.8927L111.733 91.5301Z" fill="white"/>
</svg>
