<svg width="843" height="644" viewBox="0 0 843 644" fill="none" xmlns="http://www.w3.org/2000/svg">
<path d="M36.1239 20.9841L9.80755 70.0614L6.92073 274.09L24.5579 347.982L5.0638 405.33L2.52807 584.545L71.1997 597.779H2.34082L1.69323 643.548H479.969L552.678 597.779L576.051 643.548H600.606L622.912 613.771L631.565 643.548H833.338L836.873 393.75L803.454 378.862L837.778 329.785L841.452 70.0614L765.92 51.3128H841.718L842.147 20.9841H443.939L414.686 51.3128L393.763 20.9841H36.1239Z" fill="#783A00"/>
<path d="M442.978 2.46726H839.037L838.645 30.1629H764.346L763.94 33.1177L838.338 51.8088L834.642 313.042L800.574 362.332L799.552 363.811L801.171 364.542L833.706 379.213L830.164 629.56H631.006L622.664 600.49L621.833 597.593L620.021 600.041L598.167 629.56H575.289L552.332 584.047L551.595 582.586L550.197 583.476L477.854 629.56H1.51882L2.13179 586.238H69.4907L69.8192 583.266L2.36002 570.107L4.90559 390.197L24.3342 332.379L24.4711 331.971L24.3732 331.556L6.79092 256.95L9.7049 51.0021L35.4276 2.46726H391.369L411.848 32.5192L412.884 34.0393L414.17 32.6895L442.978 2.46726Z" fill="#A04A0B" stroke="#FF8D5C" stroke-width="3"/>
</svg>
