<svg width="1451" height="656" viewBox="0 0 1451 656" fill="none" xmlns="http://www.w3.org/2000/svg">
<path d="M44.8579 32.2749L0.274346 81.7441L0.615094 285.793L33.3071 359.41L0.834278 417.047L1.13358 596.279L121.194 608.475L1.15569 609.515L1.23212 655.288L834.988 648.063L960.533 601.202L1002.48 646.612L1045.29 646.241L1083.39 616.13L1099.26 645.773L1451 642.725L1450.58 392.903L1391.93 378.521L1450.48 328.931L1450.04 69.1817L1317.88 51.5762L1450.01 50.4313L1449.96 20.0996L755.784 26.1147L705.586 56.8818L668.314 26.8726L44.8579 32.2749Z" fill="#783A00"/>
<path d="M756.016 7.51143L1448.27 1.513L1448.32 29.2114L1317.68 30.3434L1317.47 33.33L1448.35 50.9886L1448.79 311.884L1390.78 361.614L1388.57 363.508L1391.38 364.206L1448.9 378.488L1449.32 628.668L1099.98 631.695L1084.54 602.491L1083.69 600.898L1082.28 602.031L1044.58 632.175L1002.97 632.536L961.464 587.062L960.782 586.316L959.831 586.675L834.538 633.995L2.54975 641.205L2.4774 597.878L121.016 596.851L121.177 593.859L2.45029 581.64L2.15026 401.974L34.4307 343.988L34.7941 343.335L34.4955 342.654L1.92725 268.429L1.58386 62.8002L45.3364 13.6695L667.585 8.27769L704.442 38.3144L705.267 38.9872L706.178 38.4222L756.016 7.51143Z" fill="#A04A0B" stroke="#FF8D5C" stroke-width="3"/>
</svg>
