<svg width="1662" height="227" viewBox="0 0 1662 227" fill="none" xmlns="http://www.w3.org/2000/svg">
<path opacity="0.24" d="M2 222.213C40.5393 208.816 126.431 162.977 161.684 86.7983C196.936 10.6199 251.996 -2.1727 271.193 8.06411M495.012 14.6597C468.834 15.0719 411.069 50.1106 399.9 93.806C388.731 137.501 302.752 183.739 307.406 204.899M745.008 204.899C763.769 162.235 559.584 146.982 596.669 105.348C626.337 72.0408 693.962 31.0111 724.066 14.6597M1132.87 8.06413C1101.17 19.4002 1058.27 54.4802 1028.6 86.7983C998.931 119.116 1001.55 176.731 1028.6 199.334M1219.26 212.526C1225.8 204.899 1235.4 189.441 1244.56 123.898C1251.89 71.4637 1338.66 24.8278 1381.12 8.06413M1540.81 30.9424C1529.03 65.9811 1487.58 118.539 1487.58 137.089C1487.58 155.639 1508.09 211.495 1531.21 216.854" stroke="white" stroke-width="10"/>
<path opacity="0.24" d="M118.021 222.213C156.561 208.816 242.452 162.977 277.705 86.7983C312.957 10.6199 368.018 -2.1727 387.215 8.06411M611.033 14.6597C584.856 15.0719 527.09 50.1106 515.921 93.806C504.752 137.501 418.773 183.739 423.427 204.899M861.03 204.899C879.79 162.235 675.605 146.982 712.69 105.348C742.358 72.0408 809.983 31.0111 840.088 14.6597M1248.89 8.06413C1217.19 19.4002 1174.29 54.4802 1144.62 86.7983C1114.95 119.116 1117.57 176.731 1144.62 199.334M1335.28 212.526C1341.83 204.899 1351.42 189.441 1360.59 123.898C1367.92 71.4637 1454.68 24.8278 1497.15 8.06413M1656.83 30.9424C1645.05 65.9811 1603.6 118.539 1603.6 137.089C1603.6 155.639 1624.11 211.495 1647.23 216.854" stroke="white" stroke-width="10"/>
<path opacity="0.24" d="M806.298 142.159C844.837 128.762 930.729 82.923 965.981 6.74463" stroke="white" stroke-width="10"/>
</svg>
